# xmcd CD database file
#
# Track frame offsets:
#	150
#	10702
#	41000
#	67975
#	133510
#	160314
#
# Disc length: 2504 seconds
#
# Revision: 0
# Processed by: cddbd v1.5.2PL0 Copyright (c) Steve Scherf et al.
# Submitted via: CDex 1.51
#
DISCID=4409c606
DTITLE=Zimology - In Concert (USA)
DYEAR=2008
DGENRE=Jazz
TTITLE0=Silkizim
TTITLE1=San Song
TTITLE2=Rainbow Nation
TTITLE3=Requiem for Bucs Gongco
TTITLE4=Hymn for the War Orphans
TTITLE5=Widow
EXTD=YEAR: 2008
EXTT0=
EXTT1=
EXTT2=
EXTT3=
EXTT4=
EXTT5=
PLAYORDER=
